<svg xmlns="http://www.w3.org/2000/svg" viewBox="0 0 32 32" width="32" height="32"><circle cx="16" cy="16" r="16" fill="#E1306C"/><path d="M22.5 8h-13A1.5 1.5 0 0 0 8 9.5v13A1.5 1.5 0 0 0 9.5 24h13a1.5 1.5 0 0 0 1.5-1.5v-13A1.5 1.5 0 0 0 22.5 8zm-6.5 3.5A4.5 4.5 0 1 1 11.5 16 4.5 4.5 0 0 1 16 11.5zm6.25 1.25a1.25 1.25 0 1 1-1.25-1.25 1.25 1.25 0 0 1 1.25 1.25zM16 13a3 3 0 1 0 3 3 3 3 0 0 0-3-3zm7 7.5a2.5 2.5 0 0 1-2.5 2.5h-9A2.5 2.5 0 0 1 9 20.5v-9A2.5 2.5 0 0 1 11.5 9h9A2.5 2.5 0 0 1 23 11.5z" fill="#fff"/></svg>